<?xml version="1.0" standalone="no"?>
<!DOCTYPE svg PUBLIC "-//W3C//DTD SVG 20010904//EN"
 "http://www.w3.org/TR/2001/REC-SVG-20010904/DTD/svg10.dtd">
<svg version="1.0" xmlns="http://www.w3.org/2000/svg"
 width="2000.000000pt" height="2069.000000pt" viewBox="0 0 2000.000000 2069.000000"
 preserveAspectRatio="xMidYMid meet">

<g transform="translate(0.000000,2069.000000) scale(0.100000,-0.100000)"
fill="#000000" stroke="none">
<path d="M12065 20429 c-864 -66 -1679 -364 -2500 -914 -299 -200 -338 -237
-285 -265 16 -8 41 0 137 46 526 250 1048 431 1498 518 307 59 442 70 825 71
292 0 378 -3 485 -18 318 -45 584 -117 845 -229 534 -228 1008 -628 1396
-1178 618 -875 918 -2002 941 -3535 15 -985 -92 -1828 -367 -2900 -782 -3051
-2117 -5504 -4050 -7446 -680 -682 -1386 -1265 -2193 -1810 -120 -81 -214
-150 -209 -153 5 -3 95 -37 198 -75 104 -38 247 -92 317 -120 216 -86 273 -80
494 55 940 572 1836 1323 2595 2174 418 469 990 1202 1420 1820 1684 2419
2694 5055 3017 7870 70 611 95 1016 88 1445 -14 836 -135 1544 -401 2340 -180
538 -283 752 -444 927 -143 155 -580 469 -952 683 -681 394 -1291 598 -2030
681 -162 18 -656 26 -825 13z"/>
<path d="M10360 19140 c-490 -31 -1008 -155 -1576 -379 -99 -39 -183 -71 -186
-71 -4 0 -9 18 -13 40 -8 47 -29 72 -53 63 -39 -14 -573 -413 -787 -588 -716
-586 -1311 -1187 -1890 -1910 -1043 -1302 -1893 -2766 -2508 -4320 -424 -1073
-709 -2096 -902 -3241 -53 -313 -55 -355 -21 -389 34 -34 70 -38 293 -33 342
7 355 22 423 494 34 245 84 491 181 905 391 1669 1036 3305 1897 4814 229 401
403 681 730 1173 466 700 861 1212 1390 1802 203 226 863 890 886 890 31 0 30
-47 -3 -97 -17 -26 -30 -52 -28 -57 7 -21 96 -8 289 42 376 98 674 136 1048
136 330 -1 521 -24 820 -99 1170 -293 1970 -1124 2419 -2511 381 -1176 409
-2534 85 -4144 -334 -1661 -979 -3232 -1914 -4665 -1137 -1741 -2322 -2901
-3795 -3717 -66 -36 -80 -48 -80 -68 0 -22 10 -28 80 -54 130 -47 345 -132
415 -162 58 -26 76 -29 170 -29 102 0 107 1 190 41 227 109 771 473 1163 777
558 431 1137 991 1593 1537 1992 2387 3142 4946 3468 7720 102 866 113 1670
31 2315 -96 756 -328 1466 -678 2075 -581 1011 -1427 1583 -2509 1694 -188 20
-460 26 -628 16z"/>
<path d="M8935 19074 l-80 -54 42 0 c37 0 46 5 82 46 23 26 41 51 41 55 0 12
5 15 -85 -47z"/>
<path d="M8772 18954 c-34 -25 -62 -47 -62 -49 0 -9 88 10 101 22 13 11 33 73
24 73 -1 0 -29 -21 -63 -46z"/>
<path d="M8195 17759 c-407 -38 -568 -149 -715 -492 -23 -54 -39 -104 -37
-111 4 -9 71 -16 243 -24 132 -7 289 -19 349 -27 461 -64 858 -202 1212 -421
186 -115 314 -216 487 -384 286 -278 508 -592 712 -1005 469 -952 622 -2026
484 -3385 -95 -927 -344 -1924 -712 -2845 -190 -477 -383 -875 -659 -1365
-107 -190 -100 -171 -159 -475 -103 -531 -315 -1168 -549 -1644 -69 -140 -67
-133 -23 -126 42 7 43 8 256 255 782 905 1463 1998 1958 3140 532 1228 869
2555 970 3825 20 243 16 893 -5 1135 -118 1310 -545 2366 -1237 3059 -521 523
-1172 823 -1930 891 -133 12 -514 11 -645 -1z"/>
<path d="M6483 17356 c-556 -377 -995 -736 -1433 -1175 -554 -555 -1025 -1119
-1488 -1783 -1027 -1475 -1782 -3213 -2152 -4960 -88 -417 -189 -1056 -172
-1093 15 -33 69 -40 292 -40 288 1 298 7 311 194 27 416 210 1288 414 1981
643 2182 1787 4226 3295 5885 205 225 722 742 935 934 192 173 222 201 215
201 -3 -1 -100 -65 -217 -144z"/>
<path d="M7125 16522 c-61 -29 -109 -88 -282 -348 -731 -1095 -1283 -2124
-1845 -3439 -536 -1254 -949 -2652 -1188 -4025 -55 -316 -57 -339 -34 -368
l19 -23 310 0 c171 0 322 0 337 0 34 1 87 46 105 89 7 18 34 144 58 280 137
768 323 1518 595 2412 93 303 133 419 319 913 270 719 334 923 425 1364 31
147 78 351 106 453 27 102 75 280 106 395 81 309 92 341 120 374 30 36 77 41
138 16 103 -43 459 -273 667 -432 233 -176 541 -458 718 -658 71 -79 86 -77
77 10 -8 86 -144 371 -282 592 -154 246 -275 395 -503 623 l-186 185 -135 70
c-192 100 -260 171 -260 273 0 53 27 127 110 302 48 102 93 199 100 217 6 17
22 41 35 53 21 20 32 22 77 17 98 -11 389 -140 606 -270 308 -184 621 -478
845 -792 316 -444 550 -991 670 -1571 88 -421 110 -675 112 -1309 l1 -510 71
-210 c179 -527 299 -1055 358 -1577 4 -32 10 -58 15 -58 20 0 61 67 80 128
205 689 301 1125 369 1672 151 1219 50 2229 -315 3135 -66 165 -228 486 -316
626 -402 638 -904 1045 -1573 1275 -182 63 -426 125 -515 130 -60 4 -83 1
-115 -14z"/>
<path d="M18056 16179 c-3 -17 -6 -59 -6 -93 0 -143 -43 -670 -86 -1061 -51
-467 -105 -817 -190 -1245 -413 -2067 -1149 -4034 -2192 -5860 -938 -1642
-1883 -2901 -3033 -4035 -749 -738 -1425 -1274 -2213 -1752 -167 -101 -169
-103 -140 -114 16 -6 106 -39 199 -74 94 -34 258 -98 365 -141 307 -123 313
-121 712 144 985 656 1860 1416 2648 2302 149 167 521 613 722 866 1774 2224
3108 4770 3928 7498 109 365 219 764 235 859 35 199 28 405 -21 604 -65 264
-352 984 -602 1510 -80 167 -304 607 -317 621 -1 1 -5 -12 -9 -29z"/>
<path d="M4490 15977 c-287 -159 -532 -368 -1030 -874 -1456 -1480 -2486
-3328 -2980 -5348 -100 -406 -203 -955 -232 -1229 -21 -207 -3 -227 211 -234
231 -7 274 13 286 136 16 184 30 279 76 537 279 1563 805 2972 1607 4305 556
925 1162 1690 1984 2507 200 199 212 213 199 232 -7 12 -16 21 -20 21 -3 0
-49 -24 -101 -53z"/>
<path d="M19486 11107 c-1196 -2760 -2548 -4992 -4085 -6746 -533 -607 -1205
-1276 -1781 -1772 -461 -398 -942 -770 -1423 -1104 -103 -71 -184 -132 -179
-136 4 -3 151 -61 327 -127 176 -66 369 -139 430 -162 98 -38 117 -42 171 -37
78 6 105 21 364 199 593 408 1118 827 1640 1308 200 184 704 685 930 925 1381
1467 2571 3131 3715 5195 171 308 160 264 158 635 -3 577 -43 1171 -123 1815
-17 135 -32 248 -33 252 -1 4 -51 -106 -111 -245z"/>
<path d="M19435 6302 c-138 -198 -498 -700 -647 -901 -1542 -2073 -2996 -3525
-4716 -4708 -80 -55 -99 -72 -85 -78 10 -3 151 -56 314 -115 163 -60 370 -140
460 -177 155 -63 168 -67 244 -67 100 -1 135 14 293 125 793 557 1698 1345
2491 2169 478 497 996 1072 1059 1175 111 184 434 1299 586 2025 87 414 100
498 87 564 -6 33 -14 63 -18 67 -5 5 -35 -31 -68 -79z"/>
</g>
</svg>
