<?xml version="1.0" standalone="no"?><!DOCTYPE svg PUBLIC "-//W3C//DTD SVG 1.1//EN" "http://www.w3.org/Graphics/SVG/1.1/DTD/svg11.dtd"><svg class="icon" width="50px" height="50.00px" viewBox="0 0 1024 1024" version="1.1" xmlns="http://www.w3.org/2000/svg"><path d="M512 1.706667a74.368 74.368 0 0 0-22.912 145.109333l-26.922667 110.037333H104.789333A104.789333 104.789333 0 0 0 0 361.642667v555.904a104.789333 104.789333 0 0 0 104.789333 104.789333h814.421334c57.856 0 104.789333-46.933333 104.789333-104.789333V361.642667c0-57.856-46.933333-104.789333-104.789333-104.789334h-358.528l-26.282667-109.866666A74.368 74.368 0 0 0 511.957333 1.706667zM167.808 336.256h688.469333c46.976 0 85.077333 38.101333 85.077334 85.077333v431.658667a85.077333 85.077333 0 0 1-85.077334 85.077333H167.808a85.077333 85.077333 0 0 1-85.077333-85.077333V421.333333c0-46.976 38.101333-85.077333 85.077333-85.077333z m138.837333 98.645333a195.2 195.2 0 1 0 0 390.4 195.2 195.2 0 0 0 0-390.4z m415.701334 0a195.2 195.2 0 1 0 0 390.4 195.2 195.2 0 0 0 0-390.4z m-415.701334 45.653334a149.589333 149.589333 0 1 1 0 299.136 149.589333 149.589333 0 0 1 0-299.136z m415.701334 0a149.589333 149.589333 0 1 1 0 299.136 149.589333 149.589333 0 0 1 0-299.136z m-415.701334 70.954666a78.634667 78.634667 0 1 0 0 157.269334 78.634667 78.634667 0 0 0 0-157.269334z m415.701334 0a78.634667 78.634667 0 1 0 0 157.269334 78.634667 78.634667 0 0 0 0-157.269334z m-295.552 277.333334v92.117333h30.122666v-92.117333h-30.122666z m45.952 0v92.117333h30.08v-92.117333h-30.08z m45.909333 0v92.117333h30.122667v-92.117333h-30.122667z m45.952 0v92.117333h30.122667v-92.117333h-30.122667z m45.952 1.28v89.6a46.08 46.08 0 0 0 35.370667-44.757334v-0.042666c0-21.76-15.104-39.978667-35.370667-44.8z m-199.594667 1.194666a46.08 46.08 0 0 0-31.189333 43.562667v0.042667c0 20.224 13.056 37.376 31.189333 43.562666v-87.168z" fill="#999" /></svg>